<svg width="30" height="18" viewBox="0 0 30 18" fill="none" xmlns="http://www.w3.org/2000/svg">
<path d="M27 5.96703e-08H9.62172C9.22769 -7.85447e-05 8.83751 0.0775034 8.47348 0.228311C8.10945 0.379118 7.77871 0.600194 7.50018 0.8789L0.43945 7.93916C-0.146483 8.52509 -0.146483 9.47477 0.43945 10.0602L7.50018 17.121C8.06267 17.6835 8.82579 17.9999 9.62125 17.9999H27C28.657 17.9999 30 16.6569 30 14.9999V2.99998C30 1.34296 28.657 5.96703e-08 27 5.96703e-08ZM23.0302 11.909C23.3232 12.2019 23.3232 12.6768 23.0302 12.9697L21.9699 14.03C21.6769 14.323 21.2021 14.323 20.9091 14.03L18.0001 11.121L15.0911 14.03C14.7981 14.323 14.3232 14.323 14.0303 14.03L12.97 12.9697C12.677 12.6768 12.677 12.2019 12.97 11.909L15.879 8.99993L12.97 6.09089C12.677 5.79792 12.677 5.32308 12.97 5.03012L14.0303 3.96981C14.3232 3.67685 14.7981 3.67685 15.0911 3.96981L18.0001 6.87885L20.9091 3.96981C21.2021 3.67685 21.6769 3.67685 21.9699 3.96981L23.0302 5.03012C23.3232 5.32308 23.3232 5.79792 23.0302 6.09089L20.1212 8.99993L23.0302 11.909Z" fill="black"/>
</svg>
