<svg width="30" height="30" viewBox="0 0 30 30" fill="none" xmlns="http://www.w3.org/2000/svg">
<circle cx="15" cy="15" r="15" fill="black"/>
<path d="M23.1562 10.5H22.875V8.8125C22.875 7.2375 19.3875 6 15 6C10.6125 6 7.125 7.2375 7.125 8.8125V10.5H6.84375C6.37793 10.5 6 10.8776 6 11.3438V14.1562C6 14.6221 6.37793 15 6.84375 15H7.125V20.625C7.125 21.2462 7.62879 21.75 8.25 21.75V22.875C8.25 23.4962 8.75379 24 9.375 24H10.5C11.1212 24 11.625 23.4962 11.625 22.875V21.75H18.375V22.875C18.375 23.4962 18.8788 24 19.5 24H20.625C21.2462 24 21.75 23.4962 21.75 22.875V21.75H21.975C22.5375 21.75 22.875 21.3 22.875 20.85V15H23.1562C23.6221 15 24 14.6221 24 14.1562V11.3438C24 10.8776 23.6221 10.5 23.1562 10.5ZM9.9375 20.0625C9.31629 20.0625 8.8125 19.5587 8.8125 18.9375C8.8125 18.3163 9.31629 17.8125 9.9375 17.8125C10.5587 17.8125 11.0625 18.3163 11.0625 18.9375C11.0625 19.5587 10.5587 20.0625 9.9375 20.0625ZM10.5 16.125C9.87879 16.125 9.375 15.6212 9.375 15V10.5C9.375 9.87879 9.87879 9.375 10.5 9.375H19.5C20.1212 9.375 20.625 9.87879 20.625 10.5V15C20.625 15.6212 20.1212 16.125 19.5 16.125H10.5ZM20.0625 20.0625C19.4413 20.0625 18.9375 19.5587 18.9375 18.9375C18.9375 18.3163 19.4413 17.8125 20.0625 17.8125C20.6837 17.8125 21.1875 18.3163 21.1875 18.9375C21.1875 19.5587 20.6837 20.0625 20.0625 20.0625Z" fill="white"/>
</svg>
