<svg width="30" height="30" viewBox="0 0 30 30" fill="none" xmlns="http://www.w3.org/2000/svg">
<circle cx="15" cy="15" r="15" fill="black"/>
<path d="M14.0563 24.1368C8.94816 16.7316 8 15.9715 8 13.25C8 9.52207 11.0221 6.5 14.75 6.5C18.4779 6.5 21.5 9.52207 21.5 13.25C21.5 15.9715 20.5518 16.7316 15.4437 24.1368C15.1085 24.6211 14.3915 24.621 14.0563 24.1368ZM14.75 16.0625C16.3033 16.0625 17.5625 14.8033 17.5625 13.25C17.5625 11.6967 16.3033 10.4375 14.75 10.4375C13.1967 10.4375 11.9375 11.6967 11.9375 13.25C11.9375 14.8033 13.1967 16.0625 14.75 16.0625Z" fill="white"/>
</svg>
