<svg width="30" height="30" viewBox="0 0 30 30" fill="none" xmlns="http://www.w3.org/2000/svg">
<circle cx="15" cy="15" r="15" fill="black"/>
<path d="M15 6C10.0282 6 6 10.0282 6 15C6 19.9718 10.0282 24 15 24C19.9718 24 24 19.9718 24 15C24 10.0282 19.9718 6 15 6ZM17.0722 18.7052L13.8714 16.379C13.7589 16.2956 13.6935 16.1649 13.6935 16.027V9.91935C13.6935 9.67984 13.8895 9.48387 14.129 9.48387H15.871C16.1105 9.48387 16.3065 9.67984 16.3065 9.91935V14.9165L18.6109 16.5931C18.8069 16.7347 18.8468 17.0069 18.7052 17.2028L17.6819 18.6109C17.5403 18.8032 17.2681 18.8468 17.0722 18.7052Z" fill="white"/>
</svg>
