<svg width="30" height="30" viewBox="0 0 30 30" fill="none" xmlns="http://www.w3.org/2000/svg">
<path d="M29.0684 22.5978L29.902 24.2773C30.1322 24.741 29.9429 25.3036 29.4791 25.5338L25.6433 27.4607C24.7029 27.9275 23.5599 27.5307 23.1127 26.5786L19.4343 18.75H11.25C10.3169 18.75 9.52582 18.0639 9.39381 17.1401C7.40818 3.2407 7.52227 4.10414 7.5 3.75C7.5 1.61965 9.27645 -0.0958032 11.4288 0.00415777C13.3783 0.0946851 14.9473 1.69781 14.9987 3.64875C15.0495 5.57842 13.6421 7.18916 11.799 7.45963L12.0726 9.37506H19.6875C20.2053 9.37506 20.625 9.79476 20.625 10.3126V12.1876C20.625 12.7053 20.2053 13.1251 19.6875 13.1251H12.6083L12.8762 15.0001H20.625C20.981 15.0001 21.3296 15.1014 21.6301 15.2922C21.9306 15.4831 22.1706 15.7555 22.322 16.0777L25.692 23.25L27.8118 22.1749C28.2756 21.9446 28.8382 22.134 29.0684 22.5978ZM18.2436 20.625H16.8077C16.3514 23.801 13.6127 26.25 10.3125 26.25C6.69393 26.25 3.75 23.3061 3.75 19.6875C3.75 17.2556 5.07973 15.1284 7.05023 13.9948C6.83273 12.4734 6.64922 11.1905 6.4943 10.1081C2.69273 11.6287 0 15.3494 0 19.6875C0 25.3738 4.62615 30 10.3125 30C14.5236 30 18.1527 27.4624 19.7525 23.8364L18.2436 20.625Z" fill="black"/>
</svg>
